# OBJ: CENT
# Option Tuning Car Battle 1 (PS1 1997)
# Verts: 567  Faces: 176

mtllib CENT.mtl

# Vertices
v 0.215000 0.000000 -0.082000
v -0.041000 0.166000 0.000000
v 0.066000 -0.041000 -0.204000
v 0.000000 0.074000 0.052000
v 0.184000 0.000000 -0.079000
v -0.054000 0.165000 0.000000
v 0.085000 -0.015000 0.160000
v 0.000000 0.087000 0.003000
v -0.160000 0.000000 -0.080000
v -0.007000 -0.196000 0.000000
v 0.080000 -0.016000 0.189000
v 0.000000 0.083000 0.060000
v -0.160000 0.000000 -0.082000
v -0.051000 -0.187000 0.000000
v 0.080000 -0.062000 0.186000
v 0.000000 0.085000 0.015000
v -0.085000 0.000000 -0.087000
v 0.000000 -0.085000 0.000000
v 0.085000 -0.058000 0.085000
v 0.000000 0.085000 0.013000
v 0.091000 0.000000 -0.087000
v 0.000000 0.091000 0.000000
v 0.080000 -0.012000 -0.166000
v 0.000000 0.082000 0.000000
v 0.166000 0.000000 -0.085000
v -0.056000 0.091000 0.000000
v 0.082000 -0.024000 -0.166000
v 0.000000 0.065000 0.012000
v 0.209000 0.000000 -0.066000
v 0.000000 0.212000 0.000000
v 0.066000 -0.024000 -0.215000
v 0.000000 0.076000 0.072000
v 0.065000 0.000000 -0.076000
v -0.075000 -0.112000 0.000000
v 0.053000 -0.110000 0.069000
v 0.000000 0.053000 0.110000
v 0.015000 0.000000 -0.070000
v -0.060000 0.173000 0.000000
v 0.066000 -0.053000 -0.199000
v 0.000000 0.074000 0.067000
v 0.128000 0.000000 -0.073000
v -0.069000 -0.185000 0.000000
v 0.069000 -0.062000 0.204000
v 0.000000 0.066000 0.070000
v -0.197000 0.000000 -0.069000
v -0.051000 -0.207000 0.000000
v 0.069000 -0.008000 0.215000
v 0.000000 0.068000 0.016000
v -0.212000 0.000000 -0.031000
v -0.008000 -0.224000 0.000000
v 0.031000 -0.016000 0.221000
v 0.000000 0.031000 0.024000
v -0.226000 0.000000 -0.071000
v -0.024000 -0.216000 0.000000
v 0.031000 -0.043000 0.226000
v 0.000000 0.071000 0.043000
v -0.216000 0.000000 -0.031000
v -0.051000 -0.216000 0.000000
v 0.031000 -0.062000 0.214000
v 0.000000 0.031000 0.074000
v -0.206000 0.000000 -0.061000
v -0.078000 -0.147000 0.000000
v 0.044000 -0.079000 0.160000
v 0.000000 0.043000 0.107000
v -0.100000 0.000000 -0.043000
v -0.116000 0.006000 0.000000
v -0.069000 0.000000 -0.034000
v -0.118000 -0.031000 0.000000
v 0.042000 -0.111000 -0.024000
v 0.000000 0.043000 0.076000
v 0.083000 0.000000 -0.029000
v -0.050000 0.211000 0.000000
v 0.029000 -0.041000 -0.215000
v 0.000000 0.029000 0.039000
v 0.226000 0.000000 -0.029000
v -0.024000 0.226000 0.000000
v 0.029000 0.000000 -0.222000
v 0.000000 0.056000 0.071000
v 0.130000 0.000000 -0.042000
v -0.063000 0.178000 0.000000
v 0.082000 -0.024000 0.188000
v 0.000000 -0.043000 0.076000
v 0.083000 0.000000 0.056000
v -0.071000 0.130000 0.000000
v -0.043000 -0.107000 0.100000
v 0.000000 -0.043000 0.115000
v -0.069000 0.000000 0.031000
v -0.051000 -0.216000 0.000000
v -0.031000 -0.062000 0.214000
v 0.000000 -0.031000 0.074000
v -0.206000 0.000000 0.044000
v -0.079000 -0.160000 0.000000
v -0.031000 -0.043000 0.226000
v 0.000000 -0.031000 0.024000
v -0.226000 0.000000 0.029000
v -0.024000 0.226000 0.000000
v -0.029000 0.000000 -0.222000
v 0.000000 -0.029000 0.039000
v 0.226000 0.000000 0.029000
v -0.041000 0.215000 0.000000
v -0.029000 -0.050000 -0.211000
v 0.000000 -0.034000 0.118000
v -0.031000 0.000000 0.042000
v -0.111000 0.024000 0.000000
v -0.043000 -0.116000 -0.006000
v 0.000000 -0.042000 0.063000
v 0.178000 0.000000 0.031000
v -0.016000 -0.221000 0.000000
v -0.031000 -0.008000 0.224000
v -0.082000 -0.041000 -0.166000
v 0.000000 -0.066000 0.041000
v 0.204000 0.000000 0.066000
v -0.053000 0.199000 0.000000
v -0.076000 -0.072000 -0.065000
v 0.000000 -0.065000 0.012000
v 0.209000 0.000000 0.066000
v 0.000000 0.212000 0.000000
v -0.053000 -0.110000 0.069000
v 0.000000 -0.061000 0.078000
v -0.147000 0.000000 0.076000
v -0.075000 -0.112000 0.000000
v -0.073000 -0.069000 0.185000
v 0.000000 -0.080000 0.062000
v -0.186000 0.000000 0.083000
v -0.060000 -0.160000 0.000000
v -0.066000 -0.070000 0.197000
v 0.000000 -0.053000 0.110000
v 0.015000 0.000000 0.085000
v -0.015000 -0.160000 0.000000
v -0.082000 -0.024000 0.188000
v 0.000000 -0.080000 0.016000
v -0.189000 0.000000 0.082000
v -0.051000 -0.187000 0.000000
v -0.071000 -0.024000 0.216000
v 0.000000 -0.068000 0.016000
v -0.212000 0.000000 0.071000
v -0.043000 -0.216000 0.000000
v -0.069000 -0.051000 0.207000
v 0.000000 -0.070000 0.060000
v 0.173000 0.000000 0.074000
v -0.067000 0.128000 0.000000
v -0.085000 -0.013000 -0.091000
v 0.000000 -0.082000 0.024000
v 0.166000 0.000000 0.066000
v -0.024000 0.215000 0.000000
v -0.066000 -0.039000 -0.215000
v 0.000000 -0.069000 0.062000
v -0.204000 0.000000 0.085000
v -0.058000 -0.085000 0.000000
v -0.085000 -0.056000 -0.091000
v 0.000000 -0.079000 0.054000
v 0.165000 0.000000 0.080000
v -0.012000 0.166000 0.000000
v -0.082000 0.000000 -0.166000
v 0.000000 -0.085000 0.015000
v -0.085000 0.000000 0.087000
v 0.000000 0.091000 0.000000
v -0.087000 0.000000 0.085000
v 0.000000 -0.087000 0.003000
v -0.160000 0.000000 -0.062000
v -0.092000 -0.186000 0.000000
v 0.069000 -0.075000 0.158000
v 0.000000 0.069000 0.073000
v -0.195000 0.000000 -0.062000
v -0.095000 -0.216000 0.000000
v 0.058000 -0.090000 0.201000
v 0.000000 0.066000 0.073000
v -0.195000 0.000000 0.058000
v -0.090000 -0.201000 0.000000
v -0.062000 -0.095000 0.216000
v 0.000000 -0.062000 0.092000
v -0.186000 0.000000 0.066000
v -0.073000 -0.195000 0.000000
v -0.069000 -0.075000 0.158000
v 0.000000 -0.069000 0.073000
v -0.195000 0.000000 0.097000
v -0.075000 0.043000 0.000000
v -0.097000 -0.089000 -0.040000
v 0.000000 -0.077000 0.089000
v 0.040000 0.000000 0.077000
v -0.075000 0.043000 0.000000
v -0.077000 -0.089000 -0.049000
v 0.000000 -0.077000 0.075000
v 0.051000 0.000000 -0.097000
v -0.075000 0.043000 0.000000
v 0.077000 -0.075000 -0.043000
v 0.000000 0.077000 0.089000
v 0.040000 0.000000 -0.097000
v -0.089000 0.040000 0.000000
v 0.077000 -0.089000 -0.049000
v 0.000000 0.077000 0.075000
v 0.051000 0.000000 0.083000
v -0.054000 -0.085000 0.000000
v -0.083000 0.000000 0.085000
v 0.000000 0.081000 0.054000
v -0.085000 0.000000 -0.081000
v 0.000000 -0.085000 0.000000
v -0.073000 0.000000 -0.215000
v 0.000000 0.073000 0.000000
v 0.215000 0.000000 -0.089000
v 0.000000 0.129000 0.000000
v -0.089000 0.000000 -0.129000
v 0.000000 0.089000 0.000000
v -0.162000 0.000000 0.089000
v 0.000000 -0.162000 0.000000
v 0.073000 0.000000 0.217000
v 0.000000 -0.073000 0.000000
v -0.217000 0.000000 -0.037000
v 0.000000 -0.227000 0.000000
v -0.037000 0.000000 0.227000
v 0.000000 -0.033000 0.000000
v 0.227000 0.000000 -0.033000
v 0.000000 0.227000 0.000000
v -0.012000 -0.023000 -0.023000
v 0.000000 -0.012000 0.000000
v 0.033000 0.000000 -0.012000
v 0.000000 0.033000 0.000000
v 0.012000 -0.023000 -0.023000
v 0.000000 -0.012000 -0.023000
v 0.023000 0.000000 0.012000
v 0.033000 0.000000 0.000000
v 0.012000 0.033000 0.000000
v 0.000000 0.012000 -0.023000
v 0.023000 0.000000 0.012000
v -0.033000 0.000000 0.000000
v 0.012000 -0.033000 0.000000
v 0.000000 -0.012000 0.023000
v -0.023000 0.000000 -0.012000
v -0.023000 -0.023000 0.000000
v -0.012000 0.023000 0.023000
v 0.000000 0.012000 -0.023000
v -0.023000 0.000000 0.012000
v 0.000000 -0.033000 0.000000
v 0.012000 0.000000 0.033000
v 0.000000 -0.012000 -0.033000
v -0.033000 0.000000 0.012000
v 0.033000 0.033000 0.000000
v -0.012000 -0.033000 -0.033000
v 0.000000 -0.012000 0.033000
v -0.033000 0.000000 -0.070000
v -0.044000 -0.225000 0.000000
v 0.085000 -0.054000 0.165000
v 0.000000 0.085000 0.000000
v -0.165000 0.000000 -0.070000
v 0.000000 -0.225000 0.000000
v -0.025000 -0.044000 0.225000
v 0.000000 -0.025000 0.072000
v -0.210000 0.000000 -0.025000
v -0.072000 -0.210000 0.000000
v 0.025000 -0.044000 0.225000
v 0.000000 0.060000 0.072000
v -0.210000 0.000000 0.060000
v -0.072000 -0.210000 0.000000
v -0.075000 -0.077000 0.165000
v 0.000000 0.075000 0.077000
v -0.165000 0.000000 0.045000
v -0.116000 -0.075000 0.000000
v 0.045000 -0.116000 0.075000
v 0.000000 -0.045000 0.116000
v 0.015000 0.000000 -0.045000
v -0.116000 0.015000 0.000000
v -0.075000 -0.077000 -0.080000
v 0.000000 0.075000 0.077000
v 0.080000 0.000000 0.075000
v -0.066000 0.170000 0.000000
v 0.075000 -0.066000 -0.170000
v 0.000000 -0.050000 0.050000
v 0.215000 0.000000 -0.050000
v -0.050000 0.215000 0.000000
v -0.025000 -0.050000 -0.215000
v 0.000000 -0.025000 0.039000
v 0.225000 0.000000 -0.025000
v -0.039000 0.225000 0.000000
v 0.025000 -0.050000 -0.215000
v 0.000000 0.060000 0.039000
v 0.225000 0.000000 0.060000
v -0.039000 0.225000 0.000000
v -0.060000 0.000000 -0.220000
v 0.000000 0.060000 0.000000
v 0.220000 0.000000 0.070000
v 0.000000 -0.225000 0.000000
v -0.070000 -0.044000 0.225000
v 0.000000 0.085000 0.054000
v 0.166000 0.000000 -0.085000
v -0.055000 0.091000 0.000000
v 0.085000 0.000000 -0.166000
v 0.000000 0.085000 0.054000
v -0.085000 0.000000 -0.085000
v 0.000000 -0.085000 0.000000
v 0.085000 0.000000 -0.091000
v 0.000000 -0.085000 0.000000
v -0.165000 0.000000 0.085000
v -0.054000 -0.165000 0.000000
v -0.085000 -0.054000 -0.166000
v 0.000000 -0.085000 0.000000
v 0.166000 0.000000 0.085000
v -0.054000 -0.085000 0.000000
v -0.085000 0.000000 0.085000
v 0.000000 -0.085000 0.000000
v 0.091000 0.000000 0.085000
v 0.017000 -0.165000 0.000000
v -0.085000 0.017000 0.085000
v 0.000000 -0.050000 -0.017000
v -0.165000 0.000000 0.050000
v -0.054000 -0.165000 0.000000
v -0.050000 -0.054000 0.085000
v 0.000000 -0.050000 -0.017000
v -0.085000 0.000000 0.085000
v 0.017000 0.091000 0.000000
v -0.085000 0.017000 -0.166000
v 0.000000 -0.050000 -0.017000
v 0.091000 0.000000 0.050000
v -0.055000 0.091000 0.000000
v -0.050000 -0.054000 -0.166000
v 0.000000 -0.050000 -0.017000
v 0.166000 0.000000 -0.050000
v 0.017000 0.091000 0.000000
v 0.050000 0.017000 -0.166000
v 0.000000 0.050000 0.054000
v 0.166000 0.000000 -0.050000
v -0.055000 0.091000 0.000000
v 0.085000 0.017000 -0.091000
v 0.000000 0.085000 -0.017000
v 0.166000 0.000000 -0.050000
v 0.017000 -0.165000 0.000000
v 0.050000 0.017000 0.085000
v 0.000000 0.050000 0.054000
v -0.085000 0.000000 -0.050000
v -0.054000 -0.165000 0.000000
v 0.085000 0.017000 0.165000
v 0.000000 0.085000 -0.017000
v -0.085000 0.000000 -0.012000
v -0.033000 -0.033000 0.000000
v 0.012000 -0.033000 -0.033000
v 0.000000 0.012000 -0.033000
v 0.033000 0.000000 -0.012000
v 0.033000 -0.033000 0.000000
v -0.012000 -0.023000 -0.023000
v 0.000000 -0.012000 0.000000
v 0.033000 0.000000 -0.012000
v 0.000000 0.033000 0.000000
v 0.012000 -0.023000 -0.023000
v 0.000000 -0.012000 -0.023000
v 0.023000 0.000000 0.012000
v 0.033000 0.000000 0.000000
v 0.012000 0.033000 0.000000
v 0.000000 0.012000 -0.023000
v 0.023000 0.000000 0.012000
v -0.033000 0.000000 0.000000
v 0.012000 -0.033000 0.000000
v 0.000000 -0.012000 0.023000
v -0.023000 0.000000 -0.012000
v -0.023000 -0.023000 0.000000
v -0.012000 0.023000 0.023000
v 0.000000 0.012000 -0.023000
v -0.023000 0.000000 0.012000
v 0.000000 -0.033000 0.000000
v 0.012000 0.000000 0.033000
v 0.000000 3.261000 2.225000
v 1.091000 0.000000 -3.610000
v -1.430000 1.303000 0.000000
v 4.064000 0.003000 0.508000
v 0.000000 3.791000 1.532000
v -0.240000 0.000000 -3.766000
v -1.611000 -0.040000 0.000000
v 4.091000 -0.191000 0.035000
v 0.000000 3.786000 1.562000
v 0.066000 0.000000 -3.862000
v -0.506000 1.268000 0.000000
v 3.878000 0.008000 -1.318000
v 0.000000 3.337000 2.375000
v 0.030000 0.000000 -2.821000
v -2.960000 -0.240000 0.000000
v 3.958000 -0.427000 -0.963000
v 0.000000 3.327000 2.303000
v 0.638000 0.000000 -3.327000
v -2.303000 0.638000 0.000000
v 3.786000 -1.562000 -0.066000
v 0.000000 3.766000 1.611000
v -0.040000 0.000000 -2.172000
v -3.429000 -0.551000 0.000000
v 3.820000 -0.581000 1.359000
v 0.000000 3.908000 -0.233000
v -1.204000 0.000000 -0.842000
v 0.000000 0.797000 3.997000
v -0.406000 0.000000 -1.801000
v -3.651000 0.450000 0.000000
v 1.801000 -3.651000 -0.450000
v 0.000000 1.573000 3.693000
v 0.815000 0.000000 -3.027000
v -2.005000 -1.896000 0.000000
v 3.839000 0.000000 1.427000
v 0.000000 3.662000 -1.188000
v -1.398000 0.000000 -3.917000
v -0.295000 -1.161000 0.000000
v 3.883000 0.832000 1.002000
v 0.000000 0.797000 3.997000
v -0.406000 0.000000 -1.653000
v -3.691000 -0.652000 0.000000
v 3.391000 -2.037000 1.063000
v 0.000000 1.931000 3.563000
v -0.592000 0.000000 -2.869000
v 0.325000 2.905000 0.000000
v 0.713000 -3.961000 -0.759000
v 0.000000 3.958000 0.427000
v 0.963000 0.000000 -0.713000
v -3.961000 0.759000 0.000000
v 1.242000 -3.788000 0.940000
v 0.000000 0.396000 2.430000
v -3.273000 0.000000 -0.452000
v -1.848000 -3.628000 0.000000
v 0.315000 -4.064000 0.404000
v 0.000000 0.974000 3.883000
v -0.868000 0.000000 0.694000
v -3.916000 -0.979000 0.000000
v 1.067000 -3.820000 1.023000
v 0.000000 -0.866000 3.854000
v -1.083000 0.000000 -0.451000
v -2.014000 -3.538000 0.000000
v 0.477000 1.327000 3.846000
v 0.000000 0.528000 -0.809000
v 3.980000 0.000000 -0.415000
v -2.745000 3.012000 0.000000
v 0.308000 -3.380000 -2.293000
v 0.000000 0.365000 3.250000
v 2.466000 0.000000 -0.797000
v -3.997000 -0.406000 0.000000
v 0.678000 -3.764000 -1.467000
v 0.000000 -0.589000 3.775000
v 1.476000 0.000000 -0.621000
v -3.840000 1.283000 0.000000
v -0.532000 -3.850000 -1.293000
v 0.000000 0.660000 4.024000
v 0.385000 0.000000 -0.252000
v -4.088000 -0.008000 0.000000
v 0.000000 -3.895000 -1.269000
v 0.000000 0.447000 4.051000
v 0.404000 0.000000 -0.480000
v 0.381000 -4.050000 0.000000
v 0.423000 -1.858000 3.626000
v 0.000000 0.014000 -4.084000
v -0.307000 0.000000 -0.014000
v 4.084000 -0.307000 0.000000
v 0.028000 4.084000 0.315000
v 0.000000 0.028000 -4.084000
v -0.315000 0.000000 0.000000
v 4.085000 -0.299000 0.000000
v 0.000000 4.085000 0.299000
v 0.000000 -3.645000 1.096000
v 1.513000 0.000000 0.451000
v -4.045000 0.461000 0.000000
v -0.722000 0.099000 -4.031000
v 0.000000 -2.092000 3.472000
v -0.590000 0.000000 2.513000
v -3.106000 -0.904000 0.000000
v -0.904000 -3.976000 0.389000
v 0.000000 -0.671000 4.022000
v 0.385000 0.000000 4.078000
v -0.102000 -0.367000 0.000000
v -4.078000 -0.102000 0.367000
v 0.000000 -3.942000 -0.414000
v -1.033000 0.000000 3.796000
v -0.885000 -1.259000 0.000000
v -3.796000 -0.885000 1.259000
v 0.000000 -0.344000 3.948000
v 1.037000 0.000000 0.451000
v -4.045000 0.461000 0.000000
v -0.692000 -4.029000 -0.253000
v 0.000000 -2.092000 3.472000
v -0.590000 0.000000 4.012000
v -0.100000 0.819000 0.000000
v -4.025000 0.273000 -0.710000
v 0.000000 -0.555000 -0.394000
v 4.039000 0.000000 0.555000
v 0.394000 4.039000 0.000000
v -0.415000 -2.745000 -3.012000
v 0.000000 -0.485000 2.036000
v 3.521000 0.000000 1.282000
v -3.502000 1.694000 0.000000
v -0.743000 -3.860000 -1.152000
v 0.000000 -0.808000 3.995000
v -0.407000 0.000000 1.874000
v -3.495000 -1.025000 0.000000
v -1.454000 -3.790000 0.549000
v 0.000000 -0.393000 3.613000
v -1.890000 0.000000 0.527000
v -1.843000 -3.620000 0.000000
v -0.418000 -2.432000 3.269000
v 0.000000 -0.437000 2.016000
v -3.539000 0.000000 0.489000
v 1.326000 -3.845000 0.000000
v -0.501000 0.381000 4.047000
v 0.000000 -3.696000 1.220000
v -1.277000 0.000000 3.390000
v -0.880000 -2.124000 0.000000
v -3.382000 -2.007000 1.146000
v 0.000000 -2.836000 2.941000
v -0.294000 0.000000 3.071000
v -2.700000 0.241000 0.000000
v -2.725000 -3.028000 -0.431000
v 0.000000 -2.459000 3.165000
v 0.843000 0.000000 4.012000
v -0.100000 0.819000 0.000000
v -3.910000 -1.219000 0.000000
v 0.000000 -2.913000 2.849000
v -0.412000 0.000000 4.025000
v 0.273000 0.710000 0.000000
v -4.022000 0.012000 -0.777000
v 0.000000 -4.012000 0.100000
v 0.819000 0.000000 4.012000
v -0.100000 0.819000 0.000000
v -4.084000 -0.313000 -0.007000
v 0.000000 -4.081000 0.194000
v -0.295000 0.000000 4.023000
v -0.685000 -0.350000 0.000000
v -3.916000 -0.694000 -0.982000
v 0.000000 -3.916000 0.694000
v 0.982000 0.000000 -1.896000
v -3.617000 0.321000 0.000000
v -2.678000 3.045000 0.581000
v 0.000000 -2.678000 -3.045000
v -0.581000 0.000000 2.678000
v 3.045000 -0.581000 0.000000
v 1.896000 -3.617000 -0.321000
v 0.000000 3.387000 -2.251000
v -0.489000 0.000000 -1.484000
v 3.585000 -1.312000 0.000000
v -3.702000 -1.749000 0.099000
v 0.000000 0.000000 -0.896000
v -3.997000 0.000000 0.966000
v -3.270000 2.270000 0.000000
v -0.966000 -3.270000 -2.270000
v 0.000000 0.000000 -0.896000
v -3.997000 0.000000 -0.966000
v -3.270000 2.270000 0.000000
v 0.966000 -3.270000 -2.270000
v 0.000000 0.000000 0.000000
v 4.096000 0.000000 3.712000
v -1.300000 1.144000 0.000000
v 4.016000 -0.228000 -0.775000
v 0.000000 -4.012000 0.100000
v 0.819000 0.000000 0.000000
v 0.024000 -4.096000 0.000000
v 0.000000 0.024000 4.096000
v 0.000000 0.000000 -0.024000
v -4.096000 0.000000 0.000000
v 0.024000 -4.096000 0.000000
v -4.096000 0.000000 -0.048000
v 0.000000 -3.349000 0.000000
v 2.358000 0.000000 4.096000
v 0.000000 0.048000 0.000000
v -3.349000 0.000000 -2.358000
v 0.000000 -3.403000 0.000000
v -2.280000 0.000000 3.403000
v 0.000000 -2.280000 0.000000
v 4.096000 0.000000 -0.048000
v 0.000000 4.096000 0.000000
v 0.048000 0.000000 -3.349000
v 0.000000 2.358000 0.000000
v 3.349000 0.000000 -2.358000
v 2.560000 0.000000 -0.240000
v 0.000000 0.000000 -0.496000
v 0.000000 0.000000 0.256000
v 0.255000 0.016000 0.000000
v 0.000000 0.016000 0.000000
v 0.000000 -1.024000 -0.255000
v 0.240000 0.000000 0.000000

# UV coordinates
vt 0.596078 0.364706
vt 0.596078 0.254902
vt 0.541176 0.850980
vt 0.000000 0.847059
vt 1.000000 0.533333
vt 1.000000 0.580392
vt 1.000000 0.580392
vt 1.000000 0.623529
vt 0.000000 0.352941
vt 0.592157 0.364706
vt 0.250980 0.192157
vt 0.435294 0.133333
vt 0.666667 0.415686
vt 0.647059 0.435294
vt 0.823529 0.423529
vt 0.874510 0.466667
vt 0.541176 0.956863
vt 0.623529 1.000000
vt 0.627451 0.556863
vt 0.627451 0.521569
vt 0.635294 0.470588
vt 0.749020 0.470588
vt 0.725490 0.733333
vt 0.745098 0.705882
vt 0.290196 0.227451
vt 0.290196 0.250980
vt 0.290196 0.250980
vt 0.290196 0.274510
vt 0.290196 0.274510
vt 0.290196 0.329412
vt 0.290196 0.329412
vt 0.290196 0.349020
vt 0.454902 0.552941
vt 0.454902 0.600000
vt 0.454902 0.600000
vt 0.454902 0.654902
vt 0.843137 0.647059
vt 0.713725 0.686275
vt 0.976471 1.000000
vt 1.000000 0.898039
vt 0.176471 0.529412
vt 0.176471 0.490196
vt 0.772549 0.666667
vt 0.772549 0.686275
vt 0.176471 0.811765
vt 0.176471 0.756863
vt 0.000000 0.756863
vt 0.176471 0.756863
vt 0.878431 0.623529
vt 1.000000 0.623529
vt 0.878431 0.482353
vt 0.929412 0.482353
vt 0.890196 0.454902
vt 0.964706 0.450980
vt 0.811765 0.819608
vt 0.717647 0.843137
vt 0.811765 0.760784
vt 0.721569 0.760784
vt 0.819608 0.568627
vt 0.819608 0.678431
vt 0.894118 0.521569
vt 0.878431 0.443137
vt 0.968627 0.294118
vt 0.968627 0.317647
vt 0.937255 0.690196
vt 0.878431 0.741176
vt 0.815686 0.564706
vt 0.650980 0.564706
vt 0.945098 0.960784
vt 0.682353 0.960784
vt 0.454902 0.552941
vt 0.168627 0.552941
vt 0.454902 0.600000
vt 0.168627 0.600000
vt 0.807843 0.568627
vt 0.658824 0.568627
vt 1.000000 0.721569
vt 0.941176 0.721569
vt 0.290196 0.329412
vt 0.109804 0.329412
vt 0.290196 0.274510
vt 0.109804 0.274510
vt 0.176471 0.756863
vt 0.447059 0.756863
vt 0.176471 0.811765
vt 0.447059 0.811765
vt 0.772549 0.666667
vt 0.698039 0.666667
vt 0.176471 0.529412
vt 0.443137 0.529412
vt 0.819608 0.568627
vt 0.647059 0.568627
vt 0.803922 0.623529
vt 0.666667 0.623529
vt 0.000000 0.223529
vt 0.243137 0.223529
vt 0.843137 0.627451
vt 0.627451 0.627451
vt 0.290196 0.250980
vt 0.109804 0.250980
vt 0.290196 0.227451
vt 0.109804 0.227451
vt 0.878431 0.741176
vt 0.937255 0.690196
vt 0.968627 0.317647
vt 0.968627 0.294118
vt 0.878431 0.443137
vt 0.894118 0.521569
vt 0.647059 0.678431
vt 0.647059 0.568627
vt 0.721569 0.760784
vt 0.811765 0.760784
vt 0.717647 0.843137
vt 0.811765 0.819608
vt 0.964706 0.450980
vt 0.890196 0.454902
vt 0.925490 0.482353
vt 0.878431 0.482353
vt 1.000000 0.623529
vt 0.878431 0.623529
vt 0.447059 0.756863
vt 0.623529 0.756863
vt 0.447059 0.756863
vt 0.447059 0.811765
vt 0.698039 0.686275
vt 0.698039 0.666667
vt 0.443137 0.490196
vt 0.443137 0.529412
vt 0.627451 0.898039
vt 0.650980 1.000000
vt 0.713725 0.686275
vt 0.843137 0.647059
vt 0.168627 0.654902
vt 0.168627 0.600000
vt 0.168627 0.600000
vt 0.168627 0.552941
vt 0.109804 0.349020
vt 0.109804 0.329412
vt 0.109804 0.329412
vt 0.109804 0.274510
vt 0.109804 0.274510
vt 0.109804 0.250980
vt 0.109804 0.250980
vt 0.109804 0.227451
vt 0.745098 0.705882
vt 0.725490 0.733333
vt 0.749020 0.470588
vt 0.635294 0.470588
vt 0.627451 0.521569
vt 0.627451 0.556863
vt 0.623529 1.000000
vt 0.541176 0.956863
vt 0.874510 0.466667
vt 0.823529 0.423529
vt 0.647059 0.435294
vt 0.666667 0.415686
vt 0.435294 0.133333
vt 0.250980 0.192157
vt 0.592157 0.364706
vt 0.000000 0.352941
vt 1.000000 0.623529
vt 1.000000 0.580392
vt 1.000000 0.580392
vt 1.000000 0.533333
vt 0.000000 0.847059
vt 0.541176 0.850980
vt 0.596078 0.254902
vt 0.596078 0.364706
vt 0.627451 0.733333
vt 0.627451 0.874510
vt 0.627451 0.698039
vt 0.627451 0.733333
vt 0.729412 0.670588
vt 0.627451 0.592157
vt 0.784314 0.670588
vt 0.839216 0.686275
vt 0.839216 0.686275
vt 0.807843 0.580392
vt 0.784314 0.670588
vt 0.784314 0.670588
vt 0.843137 0.572549
vt 0.627451 0.572549
vt 0.807843 0.580392
vt 0.839216 0.686275
vt 0.839216 0.686275
vt 0.784314 0.670588
vt 0.627451 0.592157
vt 0.729412 0.670588
vt 0.874510 0.470588
vt 0.874510 0.560784
vt 1.000000 0.427451
vt 1.000000 0.349020
vt 0.874510 0.470588
vt 0.752941 0.470588
vt 1.000000 0.427451
vt 0.878431 0.415686
vt 0.000000 0.952941
vt 0.000000 0.847059
vt 0.000000 0.847059
vt 0.000000 0.952941
vt 0.439216 0.219608
vt 0.447059 0.349020
vt 0.447059 0.349020
vt 0.647059 0.686275
vt 0.552941 0.243137
vt 0.439216 0.101961
vt 0.313725 0.392157
vt 0.313725 0.392157
vt 0.313725 0.392157
vt 0.313725 0.392157
vt 0.313725 0.392157
vt 0.313725 0.392157
vt 0.313725 0.392157
vt 0.937255 0.749020
vt 0.368627 0.329412
vt 0.403922 0.349020
vt 0.200000 0.552941
vt 0.200000 0.654902
vt 0.576471 0.654902
vt 0.623529 0.552941
vt 0.658824 0.647059
vt 0.639216 0.654902
vt 0.627451 0.882353
vt 0.701961 1.000000
vt 0.678431 0.686275
vt 0.678431 0.686275
vt 0.247059 0.223529
vt 0.203922 0.105882
vt 0.035294 0.227451
vt 0.035294 0.329412
vt 0.376471 0.482353
vt 0.156863 0.482353
vt 0.745098 0.549020
vt 0.670588 0.560784
vt 0.874510 0.466667
vt 0.858824 0.415686
vt 0.027451 1.000000
vt 0.000000 0.949020
vt 0.427451 0.819608
vt 0.427451 0.949020
vt 0.035294 0.329412
vt 0.035294 0.227451
vt 0.043137 0.654902
vt 0.200000 0.654902
vt 0.376471 0.482353
vt 0.592157 0.356863
vt 0.745098 0.549020
vt 0.698039 0.474510
vt 0.874510 0.415686
vt 0.596078 0.415686
vt 0.027451 1.000000
vt 0.623529 1.000000
vt 0.427451 0.819608
vt 0.000000 0.823529
vt 0.796078 0.227451
vt 0.611765 0.227451
vt 0.796078 0.227451
vt 0.796078 0.403922
vt 0.556863 0.349020
vt 0.639216 0.654902
vt 0.403922 0.509804
vt 0.090196 0.486275
vt 0.529412 0.768627
vt 0.090196 0.662745
vt 0.125490 0.509804
vt 0.529412 0.486275
vt 0.529412 0.662745
vt 0.494118 0.509804
vt 0.937255 0.447059
vt 0.627451 0.443137
vt 0.627451 0.447059
vt 0.627451 0.443137
vt 0.937255 0.443137
vt 0.627451 0.447059
vt 0.937255 0.443137
vt 0.937255 0.447059
vt 0.419608 0.101961
vt 0.419608 0.101961
vt 0.623529 0.949020
vt 0.623529 1.000000
vt 0.623529 0.949020
vt 0.427451 0.949020
vt 0.627451 0.749020
vt 0.313725 0.392157
vt 0.313725 0.392157
vt 0.313725 0.392157
vt 0.313725 0.392157
vt 0.313725 0.392157
vt 0.313725 0.392157
vt 0.313725 0.392157
vt 0.313725 0.392157

o car
usemtl mat_565656_0
f 124/1 119/1 122/2
f 122/2 119/1 115/2
usemtl mat_606060_1
f 122/3 123/3 125/4
f 125/4 123/3 126/4
usemtl mat_6D6D6D_2
f 128/5 132/5 127/6
f 127/6 132/5 131/6
usemtl mat_252525_3
f 127/7 131/7 130/8
f 130/8 131/7 133/8
usemtl mat_787878_4
f 134/9 137/9 135/10
f 135/10 137/9 136/10
usemtl mat_4D4D4D_5
f 111/11 114/11 125/12
f 125/12 114/11 129/12
usemtl mat_B6B6B6_6
f 114/13 113/13 138/14
f 138/14 113/13 139/14
usemtl mat_7D7D7D_7
f 129/15 114/15 134/16
f 134/16 114/15 140/16
usemtl mat_6D6D6D_8
f 124/17 129/17 135/18
f 135/18 129/17 134/18
usemtl mat_5E5E5E_9
f 141/19 143/19 121/20
f 121/20 143/19 142/20
usemtl mat_848484_10
f 120/21 121/21 144/22
f 144/22 121/21 142/22
usemtl mat_4B4B4B_11
f 118/23 146/23 117/24
f 117/24 146/23 145/24
usemtl mat_4B4B4B_12
f 147/25 145/25 148/26
f 148/26 145/25 146/26
usemtl mat_1D1D1D_13
f 148/27 146/27 149/28
f 149/28 146/27 150/28
usemtl mat_3E3E3E_14
f 149/29 150/29 151/30
f 151/30 150/29 152/30
usemtl mat_7F7F7F_15
f 151/31 152/31 153/32
f 153/32 152/31 144/32
usemtl mat_595959_16
f 153/33 144/33 154/34
f 154/34 144/33 142/34
usemtl mat_676767_17
f 154/35 142/35 155/36
f 155/36 142/35 143/36
usemtl mat_939393_18
f 143/37 141/37 156/38
f 156/38 141/37 135/38
usemtl mat_9F9F9F_19
f 136/39 158/39 156/40
f 156/40 158/39 157/40
usemtl mat_888888_20
f 164/41 139/41 165/42
f 165/42 139/41 112/42
usemtl mat_4D4D4D_21
f 165/43 112/43 166/44
f 166/44 112/43 110/44
usemtl mat_7E7E7E_22
f 166/45 110/45 167/46
f 167/46 110/45 133/46
usemtl mat_4F4F4F_23
f 133/47 131/47 167/48
f 167/48 131/47 168/48
usemtl mat_6D6D6D_24
f 133/49 110/49 130/50
f 130/50 110/49 111/50
usemtl mat_909090_25
f 140/51 138/51 169/52
f 169/52 138/51 170/52
usemtl mat_888888_26
f 138/53 139/53 170/54
f 170/54 139/53 164/54
usemtl mat_474747_27
f 152/55 150/55 120/56
f 120/56 150/55 171/56
usemtl mat_141414_28
f 150/57 146/57 171/58
f 171/58 146/57 118/58
usemtl mat_4D4D4D_29
f 160/59 136/59 159/60
f 159/60 136/59 137/60
usemtl mat_848585_30
f 156/61 157/61 143/62
f 143/62 157/61 155/62
usemtl mat_A3A3A3_31
f 121/63 119/63 141/64
f 141/64 119/63 135/64
usemtl mat_AFAFAF_32
f 111/65 112/65 113/66
f 113/66 112/65 139/66
usemtl mat_A0A0A0_33
f 163/67 169/67 172/68
f 172/68 169/67 173/68
usemtl mat_404040_34
f 158/69 160/69 174/70
f 174/70 160/69 175/70
usemtl mat_7F7F7F_35
f 153/71 154/71 176/72
f 176/72 154/71 177/72
usemtl mat_ADADAD_36
f 154/73 155/73 177/74
f 177/74 155/73 178/74
usemtl mat_606060_37
f 155/75 157/75 178/76
f 178/76 157/75 179/76
usemtl mat_808080_38
f 157/77 158/77 179/78
f 179/78 158/77 174/78
usemtl mat_7F7F7F_39
f 151/79 153/79 180/80
f 180/80 153/79 176/80
usemtl mat_3E3E3E_40
f 149/81 151/81 181/82
f 181/82 151/81 180/82
usemtl mat_797979_41
f 167/83 168/83 182/84
f 182/84 168/83 183/84
usemtl mat_797979_42
f 166/85 167/85 184/86
f 184/86 167/85 182/86
usemtl mat_4D4D4D_43
f 165/87 166/87 185/88
f 185/88 166/87 184/88
usemtl mat_515151_44
f 164/89 165/89 186/90
f 186/90 165/89 185/90
usemtl mat_2E2E2E_45
f 160/91 161/91 175/92
f 175/92 161/91 187/92
usemtl mat_707070_46
f 161/93 159/93 187/94
f 187/94 159/93 189/94
usemtl mat_323232_47
f 170/95 164/95 190/96
f 190/96 164/95 186/96
usemtl mat_616161_48
f 169/97 170/97 173/98
f 173/98 170/97 190/98
usemtl mat_1D1D1D_49
f 148/99 149/99 191/100
f 191/100 149/99 181/100
usemtl mat_4B4B4B_50
f 147/101 148/101 192/102
f 192/102 148/101 191/102
usemtl mat_979797_51
f 195/103 198/103 196/104
f 196/104 198/103 197/104
usemtl mat_7A7A7A_52
f 205/105 204/105 206/106
f 206/106 204/105 207/106
usemtl mat_888888_53
f 208/107 178/107 203/108
f 203/108 178/107 179/108
usemtl mat_5A5A5A_54
f 189/109 209/109 175/110
f 175/110 209/109 202/110
usemtl mat_1A1A1A_55
f 211/111 212/111 214/112
f 214/112 212/111 215/112
usemtl mat_3F3F3F_56
f 213/113 211/113 216/114
f 216/114 211/113 214/114
usemtl mat_888888_57
f 190/115 186/115 218/116
f 218/116 186/115 198/116
usemtl mat_909090_58
f 173/117 190/117 219/118
f 219/118 190/117 218/118
usemtl mat_6D6D6D_59
f 221/119 196/119 222/120
f 222/120 196/119 223/120
usemtl mat_565656_60
f 182/121 183/121 222/122
f 222/122 183/121 200/122
usemtl mat_6A6A6A_61
f 182/123 222/123 184/124
f 184/124 222/123 223/124
usemtl mat_474747_62
f 184/125 223/125 185/126
f 185/126 223/125 197/126
usemtl mat_888888_63
f 185/127 197/127 186/128
f 186/128 197/127 198/128
usemtl mat_787879_64
f 203/129 179/129 202/130
f 202/130 179/129 174/130
usemtl mat_818182_65
f 203/131 204/131 208/132
f 208/132 204/131 205/132
usemtl mat_9F9F9F_66
f 178/133 208/133 177/134
f 177/134 208/133 224/134
usemtl mat_7B7B7B_67
f 177/135 224/135 176/136
f 176/136 224/135 217/136
usemtl mat_7F7F7F_68
f 176/137 217/137 180/138
f 180/138 217/137 216/138
usemtl mat_3E3E3E_69
f 180/139 216/139 181/140
f 181/140 216/139 214/140
usemtl mat_1D1D1D_70
f 181/141 214/141 191/142
f 191/142 214/141 215/142
usemtl mat_4B4B4B_71
f 191/143 215/143 192/144
f 192/144 215/143 194/144
usemtl mat_555555_72
f 193/145 194/145 212/146
f 212/146 194/145 215/146
usemtl mat_757575_73
f 217/147 224/147 213/148
f 213/148 224/147 206/148
usemtl mat_787878_74
f 206/149 224/149 205/150
f 205/150 224/149 208/150
usemtl mat_6D6D6D_75
f 204/151 199/151 225/152
f 225/152 199/151 226/152
usemtl mat_7D7D7D_76
f 199/153 219/153 226/154
f 226/154 219/153 227/154
usemtl mat_B6B6B6_77
f 218/155 198/155 227/156
f 227/156 198/155 195/156
usemtl mat_4D4D4D_78
f 220/157 226/157 196/158
f 196/158 226/157 227/158
usemtl mat_777777_79
f 204/159 202/159 199/160
f 199/160 202/159 209/160
usemtl mat_454545_80
f 221/161 222/161 228/162
f 228/162 222/161 200/162
usemtl mat_787878_81
f 228/163 200/163 229/164
f 229/164 200/163 201/164
usemtl mat_606060_82
f 220/165 231/165 230/166
f 230/166 231/165 232/166
usemtl mat_2D2D2D_83
f 230/167 210/167 225/168
f 225/168 210/167 207/168
usemtl mat_666666_84
f 210/169 213/169 207/170
f 207/170 213/169 206/170
usemtl mat_313131_85
f 233/171 193/171 210/172
f 210/172 193/171 212/172
usemtl mat_7D7D7D_86
f 234/173 237/173 235/174
f 235/174 237/173 236/174
usemtl mat_4E4E4E_87
f 238/175 239/175 237/176
f 237/176 239/175 236/176
usemtl mat_919191_88
f 238/177 234/177 239/178
f 239/178 234/177 235/178
usemtl mat_5F5F5F_89
f 238/179 237/179 240/180
f 240/180 237/179 241/180
usemtl mat_7B7B7B_90
f 237/181 234/181 241/182
f 241/182 234/181 242/182
usemtl mat_7E7E7E_91
f 243/183 244/183 240/184
f 240/184 244/183 242/184
usemtl mat_464646_92
f 241/185 245/185 240/186
f 240/186 245/185 243/186
usemtl mat_7B7B7B_93
f 244/187 245/187 242/188
f 242/188 245/187 241/188
usemtl mat_515151_94
f 246/189 249/189 247/190
f 247/190 249/189 248/190
usemtl mat_707171_95
f 247/191 250/191 246/192
f 246/192 250/191 251/192
usemtl mat_4F4F4F_96
f 252/193 255/193 253/194
f 253/194 255/193 254/194
usemtl mat_747474_97
f 255/195 252/195 256/196
f 256/196 252/195 257/196
usemtl mat_2D2D2D_98
f 129/197 124/197 125/198
f 125/198 124/197 122/198
usemtl mat_2D2D2D_99
f 220/199 230/199 226/200
f 226/200 230/199 225/200
usemtl mat_808080_100
f 129 124 125
f 125 124 122
usemtl mat_808080_101
f 162 137 163
f 163 137 134
usemtl mat_808080_102
f 162 163 188
f 188 163 172
usemtl mat_808080_103
f 159 162 189
f 189 162 188
usemtl mat_808080_104
f 172 199 188
f 188 199 209
usemtl mat_808080_105
f 220 230 226
f 226 230 225
usemtl mat_000000_106
f 227 228 114
usemtl mat_000000_107
f 203 179 202
usemtl mat_000000_108
f 110 113 111
usemtl mat_000000_109
f 115 117 114
usemtl mat_000000_110
f 120 110 121
usemtl mat_808080_111
f 114 117 115
f 115 117 116
usemtl mat_808080_112
f 118 119 110
f 110 119 113
usemtl mat_808080_113
f 111 112 114
f 114 112 117
usemtl mat_808080_114
f 120 121 118
f 118 121 119
usemtl mat_808080_115
f 115 116 122
f 122 116 123
usemtl mat_808080_116
f 122 123 124
f 124 123 125
usemtl mat_808080_117
f 124 125 120
f 120 125 121
usemtl mat_808080_118
f 126 129 127
f 127 129 128
usemtl mat_343434_119
f 110/201 113/201 111/202
f 111/202 113/201 112/202
usemtl mat_3C3C3C_120
f 114/203 117/203 115/204
f 115/204 117/203 116/204
usemtl mat_3C3C3C_121
f 118/205 116/205 110/206
f 110/206 116/205 117/206
usemtl mat_696969_122
f 119/207 118/207 120/208
f 120/208 118/207 121/208
usemtl mat_616161_123
f 120/209 121/209 122/210
f 122/210 121/209 123/210
usemtl mat_616161_124
f 122/211 123/211 124/212
f 124/212 123/211 125/212
usemtl mat_BFBFBF_125
f 128/213 129/213 130/214
f 130/214 129/213 131/214
usemtl mat_404040_126
f 140/215 113/215 141/216
f 141/216 113/215 110/216
usemtl mat_707070_127
f 123/217 121/217 125/218
f 125/218 121/217 127/218
usemtl mat_676767_128
f 118/219 110/219 121/220
f 121/220 110/219 111/220
usemtl mat_404040_129
f 129/221 127/221 142/222
f 142/222 127/221 143/222
usemtl mat_404040_130
f 127/223 121/223 143/224
f 143/224 121/223 145/224
usemtl mat_2A2A2A_131
f 146/225 147/225 145/226
f 145/226 147/225 143/226
usemtl mat_404040_132
f 141/227 149/227 140/228
f 140/228 149/227 148/228
usemtl mat_3C3C3C_133
f 119/229 141/229 115/230
f 115/230 141/229 114/230
usemtl mat_707070_134
f 122/231 124/231 120/232
f 120/232 124/231 126/232
usemtl mat_676767_135
f 119/233 120/233 141/234
f 141/234 120/233 149/234
usemtl mat_404040_136
f 128/235 151/235 126/236
f 126/236 151/235 150/236
usemtl mat_404040_137
f 126/237 150/237 120/238
f 120/238 150/237 153/238
usemtl mat_343434_138
f 154/239 153/239 155/240
f 155/240 153/239 150/240
usemtl mat_343434_139
f 156/241 149/241 157/242
f 157/242 149/241 153/242
usemtl mat_2A2A2A_140
f 178/243 179/243 111/244
f 111/244 179/243 145/244
usemtl mat_808080_141
f 124 125 126
f 126 125 127
usemtl mat_808080_142
f 126 127 128
f 128 127 129
usemtl mat_747474_143
f 132 135 133
f 133 135 134
usemtl mat_747474_144
f 136 134 131
f 131 134 135
usemtl mat_4B4B4B_145
f 137 136 138
f 138 136 139
usemtl mat_6D6D6D_146
f 139 136 144
f 144 136 142
usemtl mat_808080_147
f 131 129 136
f 136 129 142
usemtl mat_747474_148
f 137 130 133
f 133 130 132
usemtl mat_4C4C4C_149
f 138 152 137
f 137 152 151
usemtl mat_808080_150
f 130 137 128
f 128 137 151
usemtl mat_686868_151
f 156 149 157
f 157 149 153
usemtl mat_555555_152
f 158 161 159
f 159 161 160
usemtl mat_686868_153
f 162 150 163
f 163 150 151
usemtl mat_555555_154
f 164 167 165
f 165 167 166
usemtl mat_686868_155
f 168 171 169
f 169 171 170
usemtl mat_555555_156
f 172 173 143
f 143 173 142
usemtl mat_686868_157
f 174 177 175
f 175 177 176
usemtl mat_555555_158
f 178 179 111
f 111 179 145
usemtl mat_686868_159
f 162 150 163
f 163 150 151
usemtl mat_555555_160
f 172 173 143
f 143 173 142
usemtl mat_373737_161
f 111/245 145/245 121/246
usemtl mat_373737_162
f 149/247 120/247 153/248
usemtl mat_000000_163
f 156 158 149
usemtl mat_000000_164
f 162 164 150
usemtl mat_000000_165
f 168 172 171
usemtl mat_000000_166
f 174 178 177
usemtl mat_808080_167
f 110 113 111
f 111 113 112
usemtl mat_808080_168
f 114 117 115
f 115 117 116
usemtl mat_808080_169
f 118 121 119
f 119 121 120
usemtl mat_808080_170
f 122 123 114
f 114 123 117
usemtl mat_808080_171
f 115 116 118
f 118 116 121
usemtl mat_808080_172
f 124 125 122
f 122 125 123
usemtl mat_808080_173
f 119 120 126
f 126 120 127
usemtl mat_808080_174
f 126 127 128
f 128 127 129
usemtl mat_808080_175
f 128 129 124
f 124 129 125
